<svg xmlns="http://www.w3.org/2000/svg" height="800" width="1200" viewBox="-295.00455 -75 2556.7061 450"><path class="st0" d="M0 73.11v224.966h44.526V28.447zM0 .137h44.526v28.31H0zm390.014 149.245L269.217 270.179 148.42 149.244 269.217 28.447zm-86.578 148.694l124.782-124.37v-48.924L303.436 0h-68.3L110.352 124.782v48.924l124.37 124.37zM492.67 73.11v224.966h44.527V28.447zm0-72.973h44.527v28.31H492.67zm196.657 297.802v-9.345h-23.5V226.89h-34.769v9.345h23.912v52.359h-24.599v9.345zm-35.181-97.847h12.643v12.505h-12.643zm68.3 62.391l28.585-28.585 28.584 28.585-28.584 28.584zm20.34-35.593L713.1 256.574v11.68l29.822 29.822h16.353l29.822-29.821v-11.681l-29.684-29.684zm163.124 0v9.345h24.049v52.359h-24.737v9.345h58.956v-9.345h-23.5V226.89zm23.224-14.43h12.643v-12.506h-12.643zm68.85 85.479v-71.05h10.445v6.872h.275c1.924-2.611 4.81-4.673 8.383-6.322 3.71-1.649 7.558-2.473 11.543-2.473 7.696 0 13.88 2.336 18.553 7.146 4.672 4.81 7.008 11.131 7.008 19.377v46.724h-10.994v-43.151c0-13.193-5.36-19.79-16.078-19.79-5.497 0-9.895 1.512-13.193 4.673-3.298 3.16-4.948 7.421-4.948 13.055v45.35h-10.994zm113.651-20.614v-40.678h-22.675v-9.757h22.813v-17.453h10.719v17.453h25.561v9.757h-25.424v39.304c0 4.26.55 7.146 1.787 8.795 1.1 1.649 3.436 2.473 7.009 2.473h12.093v10.582h-12.643c-6.734 0-11.544-1.649-14.567-5.222-3.161-3.16-4.673-8.383-4.673-15.254m81.219-20.477h42.19c-.138-6.046-1.924-11.131-5.36-15.529-3.436-4.397-8.658-6.596-15.667-6.596-6.87 0-12.093 2.336-15.666 7.009-3.573 4.81-5.497 9.757-5.497 15.116m42.464 19.103l8.933 5.909c-2.748 5.222-6.459 9.482-11.406 12.918-4.948 3.435-11.132 5.222-18.278 5.222-9.62 0-17.59-3.436-23.912-10.307-6.184-6.871-9.345-15.941-9.345-27.348 0-11.406 3.023-20.476 9.208-27.347 6.184-6.872 14.017-10.307 23.5-10.307 9.62 0 17.315 3.298 23.224 10.032 5.91 6.734 8.933 15.804 8.933 27.485v3.16h-53.596c.137 6.735 1.924 12.506 5.634 17.316 3.71 4.673 9.07 7.147 16.08 7.147 3.16 0 6.046-.413 8.52-1.237 2.473-.825 4.535-2.062 6.046-3.573 1.512-1.512 2.749-2.886 3.573-4.123.825-1.237 1.65-2.611 2.612-4.26 0-.275.137-.55.274-.687m53.322 21.988v-71.05h10.444v10.308h.275c1.649-3.161 4.26-5.91 8.108-8.246 3.71-2.199 7.833-3.298 12.23-3.298 5.498 0 10.17 1.511 14.018 4.397 3.985 2.886 6.871 7.147 8.658 12.644l-10.72 4.535c-2.06-7.01-6.596-10.445-13.88-10.445-5.221 0-9.62 1.924-13.055 5.91-3.435 3.985-5.222 9.207-5.222 15.666v39.579zm111.314-32.021c-6.047 1.65-10.17 3.574-12.368 5.497-2.199 1.924-3.298 4.536-3.298 7.696 0 7.421 4.672 11.132 14.017 11.132 6.46 0 11.406-1.512 14.842-4.398 3.436-2.886 5.222-6.459 5.222-10.719v-17.728h-.275c-1.1 2.611-7.146 5.497-18.14 8.52m19.652 32.02v-7.833h-.275c-1.374 2.337-3.848 4.535-7.696 6.597-3.71 2.061-8.383 3.16-14.017 3.16-7.833 0-13.88-1.923-18.003-5.771-4.123-3.848-6.184-8.658-6.184-14.43 0-5.91 1.924-10.582 5.634-13.88 3.711-3.298 9.895-6.184 18.553-8.383 7.42-1.924 12.643-3.573 15.804-5.222 3.023-1.65 4.672-3.985 4.672-7.284 0-2.886-1.374-5.36-3.985-7.42-2.748-1.925-6.322-2.887-10.857-2.887-9.482 0-15.254 4.673-17.315 14.155l-10.17-3.023c1.1-6.184 3.986-11.269 8.796-15.117 4.81-3.848 10.856-5.772 18.277-5.772 7.97 0 14.43 2.062 19.377 6.047 5.085 3.985 7.559 9.482 7.559 16.354v50.71zm98.809-27.21l10.582 2.2c-1.1 8.245-4.398 14.841-9.757 19.651-5.36 4.947-11.956 7.421-19.79 7.421-9.62 0-17.453-3.298-23.5-10.032-6.046-6.734-9.07-15.941-9.07-27.485 0-11.544 3.161-20.614 9.345-27.485 6.185-6.734 14.018-10.17 23.225-10.17 7.559 0 14.018 2.474 19.377 7.284 5.36 4.81 8.52 11.131 9.758 18.827l-10.307 2.199c-1.1-5.222-3.161-9.62-6.185-13.056-3.023-3.435-7.283-5.222-12.643-5.222-6.459 0-11.68 2.474-15.529 7.284-3.985 4.81-5.91 11.681-5.91 20.339 0 8.52 1.925 15.391 5.773 20.201 3.848 4.948 9.07 7.421 15.804 7.421 5.222 0 9.62-1.924 12.918-5.772 3.16-3.847 5.222-8.382 5.909-13.605m62.666 6.597v-40.678h-22.675v-9.757h22.812v-17.453h10.72v17.453h25.56v9.757h-25.423v39.304c0 4.26.55 7.146 1.787 8.795 1.099 1.649 3.435 2.473 7.008 2.473h12.094v10.582h-12.643c-6.734 0-11.544-1.649-14.567-5.222-3.161-3.16-4.673-8.383-4.673-15.254m75.859-50.435v9.345h24.05v52.359h-24.737v9.345h58.955v-9.345h-23.5V226.89zm23.225-14.43h12.643v-12.506h-12.643zm118.735 14.43l-21.713 55.657h-.275L1755.2 226.89h-11.543l28.721 71.049h9.345l28.722-71.05zm51.123 29.958h42.19c-.138-6.046-1.924-11.131-5.36-15.529-3.436-4.397-8.658-6.596-15.667-6.596-6.87 0-12.093 2.336-15.666 7.009-3.573 4.81-5.497 9.757-5.497 15.116m42.464 19.103l8.933 5.909c-2.611 5.222-6.459 9.482-11.406 12.918-4.948 3.435-11.132 5.222-18.278 5.222-9.62 0-17.59-3.436-23.912-10.307-6.321-6.871-9.345-15.941-9.345-27.348 0-11.406 3.024-20.476 9.208-27.347 6.184-6.872 14.017-10.307 23.5-10.307 9.62 0 17.315 3.298 23.224 10.032 5.91 6.734 8.933 15.804 8.933 27.485v3.16h-53.596c.137 6.735 1.924 12.506 5.634 17.316 3.711 4.673 9.07 7.147 16.08 7.147 3.16 0 6.046-.413 8.52-1.237 2.473-.825 4.535-2.062 6.046-3.573 1.512-1.512 2.749-2.886 3.573-4.123a39 39 0 002.474-4.26c.138-.275.275-.55.412-.687m37.793-50.298v3.71h5.222v20.34h3.985v-20.34h4.81v-3.71zm30.783 0l-3.71 9.345h-.138l-3.848-9.345h-5.497v24.05h3.985v-18.69h.138l3.848 9.757h2.886l3.847-9.758h.138v18.69h3.985v-24.05z"/></svg>